# xmcd
#
# Track frame offsets: 
#        187
#        25767
#        41675
#        67530
#        86847
#        109947
#        125170
#        145542
#
# Disc length: 2305 seconds
#
# Revision: 2
# Processed by: cddbd v1.5.2PL0 Copyright (c) Steve Scherf et al.
# Submitted via: ExactAudioCopy v0.99pb4
#
DISCID=6508ff08
DTITLE=Hooker John Lee - Simply the truth
DYEAR=1968
DGENRE=Blues
TTITLE0=I don't wanna go to Vietnam
TTITLE1=Mini skirts
TTITLE2=Mean mean Woman
TTITLE3=I wanna bugaloo
TTITLE4=Tantalizing with the blues
TTITLE5=But the old time shimmy
TTITLE6=One room country shack
TTITLE7=I'am just a drifter
EXTD=
EXTT0=
EXTT1=
EXTT2=
EXTT3=
EXTT4=
EXTT5=
EXTT6=
EXTT7=
PLAYORDER=
